<?xml version="1.0" encoding="UTF-8"?>
<svg id="Layer_1" data-name="Layer 1" xmlns="http://www.w3.org/2000/svg" viewBox="0 0 480.71 139.84">
  <defs>
    <style>
      .cls-1 {
        fill: #ccb7af;
        stroke-width: 0px;
      }
    </style>
  </defs>
  <g>
    <path class="cls-1" d="M112.9,76.85s-2.76,2.19-7.72,12.67c-4.96,10.48-9.83,27.46-9.83,27.46,0,0-13.73,7.39-32.9,7.07-19.17-.32-29.16-2.84-29.16-2.84l-25.02-31.36s-3.9-1.06-5.44-2.6,0-3.25,0-3.25l7.39-3.01s2.69-.96,2.33,4c-.37,4.97,1.13,5.18,1.13,5.18l11.27,11.18s3.05,2.04,4.02-7.52c.97-9.57,1.13-11.21-1.22-13.19-2.35-1.98-5.27-2.8-4.81-5.03s3.02-2.1,3.02-2.1l7.22-.52s1.55,2.19.24,5.61c-1.31,3.41-.21,5.7.94,7.34s8.93,10.82,8.93,10.82c0,0,2.32,1.22,2.44-.67s.58-5.21-1.52-6.82c-2.1-1.61-5.36-3.47-5.3-4.84s1.68-1.77,4.9-2.25,3.99-.58,3.99-.58c0,0,4.39-.82,2.47,3.78s-1.86,4.84-.91,6.73c.94,1.89,3.96,7.25,5.45,7.68,1.49.43,5.64-3.26,5.61-6.12-.03-2.86.09-11.33.09-11.33,0,0,.12-.64-1.52-2.59-1.65-1.95-4.66-4.78-4.66-4.78,0,0-1.52-2.74,1.8-3.29,3.32-.55,7.71-.55,7.71-.55,0,0,2.59.37,1.19,3.72-1.4,3.35-3.02,4.33-.24,8.93,2.77,4.6,7.31,11.73,9.69,12.03s3.32-.34,3.35-2.8.09-9.44-.12-9.66-2.89-4.02-2.92-4.9-.37-3.35,1.1-3.41c1.46-.06,8.13.12,8.13.12,0,0,2.56,2.01.55,4.9,0,0-4.69,2.68-3.75,7.52s1.04,5.61,1.68,5.54,8.07-12.43,8.04-14.81-2.77-5.58-2.65-6.25.3-2.8,1.83-2.83,7.31,0,7.31,0c0,0,1.49-.06,1.55.58s.61,2.89-.82,4.11-3.75,2.38-4.02,3.56-.12,14.9,2.96,16.15,3.69-2.59,3.69-2.59l5.27-8.47s1.01-2.68-2.65-6.03c0,0-2.25-4.3,1.1-4.2,3.35.09,8.01,0,8.01,0,0,0,2.98,1.91.83,4.53Z"/>
    <polygon class="cls-1" points="50.34 29.79 37.97 36.68 42.3 22.48 32.98 13.04 46.14 13.04 52.6 0 56.93 13.16 70.14 15.48 59.24 24.31 61.25 38.39 50.34 29.79"/>
    <polygon class="cls-1" points="101.37 28.48 98.08 35.67 90.34 35.67 95.86 41.89 93.69 49.57 100.61 45.33 106.95 49.99 105.67 41.92 111.76 36.92 104.33 36.25 101.37 28.48"/>
    <polygon class="cls-1" points="5.58 44.89 5.13 50.45 0 52.31 5.15 55.1 5.56 60.71 9.13 56.24 14.45 57.81 11.66 52.76 14.5 47.98 9.41 49.33 5.58 44.89"/>
  </g>
  <path class="cls-1" d="M248.74,71.36s1.17-3.72,0-6.85-2.55-5.73-2.55-5.73c0,0,.13,8.4-.61,10.11s3.16,2.47,3.16,2.47Z"/>
  <path class="cls-1" d="M243.73,69.86s1.17-4.07-.15-5.73-2.11-2.01-2.11-2.01c0,0,.41,1.35.76,2.95s.33,3.36.28,3.62,1.22,1.17,1.22,1.17Z"/>
  <path class="cls-1" d="M240.06,69.5s.2-2.67-.38-3.28-1.63-1.6-1.63-1.6c0,0,.69,1.71.87,2.98s.43,1.91.43,1.91h.71Z"/>
  <circle class="cls-1" cx="346.08" cy="58.76" r="3.94"/>
  <path class="cls-1" d="M463,122.07c1.21-.45,2.36-.99,3.48-1.66-.54.22-2.2.89-3.48,1.66Z"/>
  <path class="cls-1" d="M454.58,68.59c-1.76-3.06-4.98-8.58-6.06-9.89-1.5-1.82-3.51-.48-3.51-.48l-7.85,12.67s-9.38,1.44-13.85,1.88c-4.44.48-1.44,4.08-1.44,4.08l5.81,8.2c-1.53,3.41-2.36,7.21-2.36,11.2,0,14.65,11.42,26.68,25.82,27.63l.51.93s.93.35-4.02,5.27c-4.95,4.95-17.97,3.16-17.97,3.16,0,0-2.81.22-2.81,2.71s2.2,3.48,2.2,3.48c0,0,5.49.64,9.51.32,4.05-.32,2.3-.19,8.87-2.3,6.61-2.11,10.12-8.49,11.3-9.7,1.15-1.24,1.76-2.81,2.65-4.28.29-.45.86-.93,1.6-1.37l.03-.03c1.28-.77,2.94-1.44,3.48-1.66.13-.03.19-.06.19-.06,8.39-4.79,14.04-13.79,14.04-24.09,0-14.77-11.62-26.84-26.13-27.67ZM445.86,59.78l.06-.03c.68-.31,1.47-.33,2.15-.03.03.01.05.02.06.03.13.03.57.83.57.83l4.98,7.98.06.13.16.7h0c-.23.59-.6,1.1-1.08,1.5h0s-2.87.67-2.87.67l-7.02.26-1.93-.07-1.84-.03.76-1.85,5.94-10.08ZM437.44,73.95l-6.81,8.82c-.48.63-1.12,1.13-1.83,1.46-.19.09-.32.15-.32.15h0l-5.27-7.98h0c-.27-.97.29-1.98,1.26-2.27h0l.02-.02h0l12.76-1.15h0l.76.08-.57.91h0ZM455.71,116.76c-13.5,1.72-24.93-9.71-23.2-23.2,1.18-9.23,8.58-16.63,17.81-17.81,13.5-1.72,24.93,9.71,23.2,23.2-1.18,9.23-8.58,16.63-17.81,17.81Z"/>
  <path class="cls-1" d="M146.73,124.36c-2.18,0-3.96-1.76-3.99-3.95l-.77-70.78c-.02-2.2,1.74-4.01,3.95-4.03,2.08-.02,4.01,1.74,4.03,3.95l.77,70.78c.02,2.2-1.74,4.01-3.95,4.03h-.05Z"/>
  <path class="cls-1" d="M182.65,125.29c-10.79,0-26.79-11.26-26.79-26.82s10.7-30.33,28.6-30.33,24.42,16.41,24.73,17.11l.99,2.3-1.99,1.51c-.4.3-9.86,7.37-20.19,7.92-10.85.57-18.75-7.96-19.08-8.32-1.18-1.31-1.09-3.32.22-4.51,1.3-1.18,3.31-1.09,4.5.21h0c.06.07,6.29,6.76,14.02,6.25,5.75-.31,11.41-3.28,14.44-5.14-2.31-3.8-7.94-10.93-17.63-10.93-13.91,0-22.22,12.18-22.22,23.95s13.24,20.44,20.41,20.44c6.17,0,15.09-5.74,18-7.96,1.41-1.07,3.41-.79,4.47.61,1.07,1.4.79,3.4-.61,4.47-.5.38-12.27,9.26-21.87,9.26Z"/>
  <path class="cls-1" d="M240.57,124.85c-15.86,0-27.37-12.23-27.37-29.09s11.75-27.22,28.58-27.22c4.62,0,8.28,0,12.78,2.14,1.59.76,2.27,2.66,1.51,4.25s-2.66,2.26-4.25,1.51c-3.07-1.46-5.29-1.52-10.03-1.52-13.28,0-22.2,8.38-22.2,20.84,0,13.37,8.63,22.71,20.98,22.71s23.42-10.5,23.42-23.42c0-6.17-1.06-9.07-4.52-12.41-1.27-1.22-1.31-3.24-.08-4.51,1.22-1.27,3.24-1.31,4.51-.08,4.72,4.55,6.48,9.15,6.48,17,0,16.43-13.37,29.8-29.8,29.8Z"/>
  <path class="cls-1" d="M248.05,73.47s-1.02,3.11-7.54,3.67-8.2-2.34-8.2-2.34l15.73-1.32Z"/>
  <path class="cls-1" d="M252.84,92.51s2.82,1.84,1.71,2.61-1.88.25-1.88.25l-4.98-2.45s-1.36-.82.92-1.63,6.69-2.61,6.69-2.61c0,0,2.65-.31,1.27,2.11l-3.72,1.73Z"/>
  <circle class="cls-1" cx="231.71" cy="91.72" r="2.31"/>
  <path class="cls-1" d="M241.79,112.49c-9.65,0-14.27-7.97-14.46-8.31-.43-.77-.16-1.73.6-2.17.76-.44,1.74-.17,2.18.6.16.27,3.93,6.7,11.68,6.7s10.86-6.34,10.99-6.6c.38-.79,1.34-1.12,2.13-.74.79.38,1.12,1.33.74,2.12-.16.35-4.14,8.41-13.86,8.41Z"/>
  <path class="cls-1" d="M293.42,124.76c-2.2,0-3.99-1.79-3.99-3.99V49.86c0-2.2,1.79-3.99,3.99-3.99s3.99,1.79,3.99,3.99v70.92c0,2.2-1.79,3.99-3.99,3.99Z"/>
  <path class="cls-1" d="M346.07,124.76c-2.2,0-3.99-1.79-3.99-3.99v-49.05c0-2.2,1.79-3.99,3.99-3.99s3.99,1.79,3.99,3.99v49.05c0,2.2-1.79,3.99-3.99,3.99Z"/>
  <path class="cls-1" d="M293.43,105.82c-1.12,0-2.23-.46-3.01-1.37-1.44-1.66-1.26-4.19.4-5.63l34.71-30.11c1.67-1.45,4.19-1.26,5.63.4,1.44,1.66,1.27,4.19-.4,5.63l-34.71,30.11c-.75.65-1.68.98-2.61.98Z"/>
  <path class="cls-1" d="M332.83,125.65c-1.23,0-2.44-.56-3.22-1.63l-24.21-32.99c-1.3-1.78-.92-4.27.86-5.57,1.78-1.3,4.27-.92,5.58.86l24.21,32.99c1.3,1.78.92,4.27-.86,5.57-.71.52-1.54.77-2.36.77Z"/>
  <path class="cls-1" d="M369.57,122.78c-1,0-1.99-.47-2.61-1.35-4.54-6.43-6.4-12.42-6.4-20.66,0-16.71,13.19-30.3,29.4-30.3s29.4,13.59,29.4,30.3c0,7.82-1.2,14.33-7.04,20.65-1.2,1.29-3.22,1.37-4.51.18-1.29-1.19-1.37-3.21-.18-4.51,3.94-4.27,5.34-8.54,5.34-16.32,0-13.18-10.32-23.91-23.02-23.91s-23.02,10.73-23.02,23.91c0,6.89,1.46,11.65,5.23,16.98,1.02,1.44.68,3.43-.76,4.45-.56.4-1.2.59-1.84.59Z"/>
  <path class="cls-1" d="M373.66,82.73c-.7,0-1.42-.23-2.01-.71h0c-1.09-.88-4.65-3.13-7.83-3.07-3.62.07-4.92.88-4.93.89-1.33,1.16-3.25.95-4.41-.38-1.16-1.33-.93-3.42.4-4.57.59-.51,2.96-2.2,8.82-2.32.09,0,.18,0,.27,0,6.03,0,11.15,4.04,11.72,4.5,1.36,1.12,1.57,3.13.45,4.49-.63.77-1.55,1.17-2.47,1.17Z"/>
  <path class="cls-1" d="M467.33,85.76h-8.49c-.12,0-.23-.05-.31-.14l-2.76-3.28-2.45,3.26c-.07.1-.19.16-.32.16h-15.14c-.22,0-.4-.18-.4-.4s.18-.4.4-.4h14.94l2.63-3.5c.07-.1.18-.16.31-.16h.01c.12,0,.23.05.31.14l2.97,3.52h8.3c.22,0,.4.18.4.4s-.18.4-.4.4Z"/>
  <circle class="cls-1" cx="442.57" cy="92.59" r="2.6"/>
  <circle class="cls-1" cx="462.63" cy="92.59" r="2.6"/>
  <path class="cls-1" d="M442.57,90.67c-.22,0-.4-.18-.4-.4v-1.3c0-.22.18-.4.4-.4s.4.18.4.4v1.3c0,.22-.18.4-.4.4Z"/>
  <path class="cls-1" d="M441.53,91.11c-.12,0-.24-.06-.32-.16l-1.17-1.55c-.13-.17-.1-.43.08-.56.18-.13.43-.1.56.08l1.17,1.55c.13.17.1.43-.08.56-.07.06-.16.08-.24.08Z"/>
  <path class="cls-1" d="M440.74,92s-.08,0-.12-.02l-1.48-.46c-.21-.07-.33-.29-.26-.5s.28-.33.5-.26l1.48.46c.21.07.33.29.26.5-.05.17-.21.28-.38.28Z"/>
  <path class="cls-1" d="M463.36,90.67c-.22,0-.4-.18-.4-.4v-1.3c0-.22.18-.4.4-.4s.4.18.4.4v1.3c0,.22-.18.4-.4.4Z"/>
  <path class="cls-1" d="M464.4,91.11c-.08,0-.17-.02-.24-.08-.18-.13-.21-.38-.08-.56l1.17-1.55c.13-.17.38-.21.56-.08.18.13.21.38.08.56l-1.17,1.55c-.08.1-.2.16-.32.16Z"/>
  <path class="cls-1" d="M465.19,92c-.17,0-.33-.11-.38-.28-.07-.21.05-.43.26-.5l1.48-.46c.21-.07.43.05.5.26s-.05.43-.26.5l-1.48.46s-.08.02-.12.02Z"/>
  <path class="cls-1" d="M453.01,113.38c-10.67,0-14.97-7.63-15.15-7.96-.42-.77-.14-1.74.63-2.17.77-.42,1.74-.14,2.16.63.17.29,3.66,6.3,12.35,6.3s13.38-6.19,13.57-6.45c.51-.72,1.51-.88,2.22-.38.72.51.89,1.5.38,2.22-.22.32-5.62,7.8-16.17,7.8Z"/>
</svg>